#!OML:ASF F:\VICON\USERDATA\INSTALL\rory3\rory3.ASF
:FULLY-SPECIFIED
:DEGREES
61
root 0.5299328568294946 18.594889520801047 -15.507558447677507 10.093297400600463 -0.5193371100079343 -0.27336512238255994
lfemur -29.905184054799452 7.084596164714327 -19.649858326200007
ltibia 38.03047806758914
lfoot -9.95527970447458 3.447225118488616
ltoes 4.805728630119561
rfemur -20.287993813163972 -3.2328735178042334 17.85610107503969
rtibia 32.31204604909272
rfoot -15.303606129878743 -4.150646385892296
rtoes 9.737379740659224
lowerback 9.092056180519949 -0.2374430937700479 -0.13411143755314286
upperback 9.50231129653528 -0.38584109546058554 1.5086305493957188
thorax 3.3008782152312928 -0.30797401698766536 1.7595358380933945
lowerneck -13.098375849635586 1.043660596630832 -1.9129774061666571
upperneck 21.680431435863472 1.969427871151309 -1.2156275022672598
head 9.03168955182751 0.9700823131691209 0.1358476286817355
lclavicle -1.1833243879324571e-17 -8.157516955683995e-16
lhumerus -17.628139160679677 -7.180030874189693 87.34223637289891
lradius 22.660555211848806
lwrist 8.254162909617914
lhand -26.829595910473408 -3.194103704662775
lfingers 7.125019999999999
lthumb -0.5577261861654436 26.56995856442202
rclavicle -1.129297864618862e-17 -8.154905024256347e-16
rhumerus -19.486800504862167 2.356730550923933 -84.40013163743215
rradius 35.64583682566219
rwrist 20.828501874155663
rhand -18.912077480416844 -25.903841181955922
rfingers 7.125019999999999
rthumb 8.153863137921018 -55.43041338040096
62
root 0.5117007881728145 18.64998410628567 -15.498140064067439 9.97447782617765 -0.4674981755875669 -0.12518048380868985
lfemur -30.183209282837417 7.1267741843970445 -19.73597167036369
ltibia 38.312554620904486
lfoot -10.192190262714835 3.3432056998119646
ltoes 4.659205610731818
rfemur -19.990619568452313 -3.172569473623859 17.62531127452485
rtibia 31.978521469046722
rfoot -15.43634657054859 -4.125741960558154
rtoes 9.392280926495758
lowerback 9.444077049656173 -0.23265322323365514 -0.36862107761510954
upperback 9.572746308158937 -0.39156978126591524 1.457217694163444
thorax 3.332165896645963 -0.31279527264667917 1.7411150604191599
lowerneck -13.09999922383546 1.0610936624653773 -1.905506041176361
upperneck 21.64062114355095 1.9238576035562898 -1.2309574949191218
head 9.012380636748095 0.9311796199628698 0.13883180398128658
lclavicle -1.1811498540905434e-17 -8.157270257854921e-16
lhumerus -17.81465513299662 -7.107483322389388 87.37436977141039
lradius 22.736444857469802
lwrist 8.440002198370022
lhand -26.842410076161368 -3.277315019721909
lfingers 7.125019999999999
lthumb -0.7233170778629728 26.43325152762914
rclavicle -1.1385347367123945e-17 -8.156126047034036e-16
rhumerus -19.598861455639412 2.880310576500963 -84.30430267119205
rradius 36.04015915413367
rwrist 20.6963760707429
rhand -18.892855150614565 -25.895276590944196
rfingers 7.125019999999999
rthumb 8.184944851418807 -55.41328793846454
63
root 0.5007356845253204 18.720486520187336 -15.45486540741375 10.023229596874733 -0.2022109765997826 -0.12379829257099573
lfemur -30.800420063129508 7.09814230550006 -19.715131486660663
ltibia 38.77556035625038
lfoot -10.224743684456747 3.161250440077379
ltoes 5.081251084389198
rfemur -19.598093996712933 -3.1130777282380633 17.671566913816424
rtibia 31.268752783873673
rfoot -15.223592639344096 -4.195117232730907
rtoes 9.40522266668071
lowerback 9.724746367734344 -0.2966969482780583 -0.3566441244015631
upperback 9.560847218447295 -0.4770342978549572 1.4575884811854742
thorax 3.3615449317562938 -0.3468746581832292 1.6760113197940054
lowerneck -13.129337752078117 0.9589160984936307 -1.9037876434925152
upperneck 21.68551437819134 1.7723395239807713 -1.2407568724257887
head 8.992477093991528 0.829439440723935 0.13376602550087102
lclavicle -1.1750027877601886e-17 -8.156709882969146e-16
lhumerus -17.971611545510445 -7.308162947027986 87.59256971850498
lradius 22.8596552505327
lwrist 8.993670118673752
lhand -26.88032605324005 -3.3151642323137844
lfingers 7.125019999999999
lthumb -0.8822931297930109 26.317062418686962
rclavicle -1.1380307716281002e-17 -8.15606264411432e-16
rhumerus -19.83263584522115 3.078362282257878 -84.15967619416581
rradius 36.184493510833754
rwrist 20.666648787919037
rhand -18.81303586026088 -25.87957923472678
rfingers 7.125019999999999
rthumb 8.262717293684982 -55.38375544512009
64
root 0.4926149588113549 18.79147130664962 -15.40528636238412 10.109899048279543 0.10192255984964893 -0.08954636191993726
lfemur -31.201756386484398 7.056740924589706 -19.7343014436512
ltibia 38.95306075540309
lfoot -10.023375872826096 2.933063859910172
ltoes 5.935804026836113
rfemur -19.121328322775724 -3.0815337593907794 17.70316231427216
rtibia 30.37775908951665
rfoot -14.854189355704005 -4.281074060084711
rtoes 9.73462002037345
lowerback 10.106032273758593 -0.354814770921121 -0.3758130568466641
upperback 9.543134972270911 -0.5513364530579135 1.457594508319083
thorax 3.3575845655352166 -0.378034392993557 1.637220061486965
lowerneck -13.162620284599107 0.7788064981504199 -1.930879592706765
upperneck 21.846549689788905 1.533931950114361 -1.2039379796202123
head 9.010479830455974 0.6738407595761736 0.1382051240912232
lclavicle -1.1837121961997982e-17 -8.158024599093426e-16
lhumerus -18.10614429794176 -7.70681707330732 87.93685078333044
lradius 22.98384369981062
lwrist 9.698838054059676
lhand -26.886854529943797 -3.3395346716924514
lfingers 7.125019999999999
lthumb -0.9265322369181098 26.23996683047314
rclavicle -1.139473707617055e-17 -8.156250473389636e-16
rhumerus -20.14950099229238 3.019346351138946 -83.99829530895478
rradius 36.02726783998739
rwrist 20.703410853105748
rhand -18.6980790458403 -25.85103342400144
rfingers 7.125019999999999
rthumb 8.337911136270838 -55.35709487881335
